<svg width="60" height="60" viewBox="0 0 60 60" fill="none" xmlns="http://www.w3.org/2000/svg">
	<path d="M4 26C1.79086 26 0 27.7909 0 30C0 32.2091 1.79086 34 4 34V26ZM58.8284 32.8284C60.3905 31.2663 60.3905 28.7337 58.8284 27.1716L33.3726 1.71573C31.8105 0.153632 29.2778 0.153632 27.7157 1.71573C26.1536 3.27783 26.1536 5.81049 27.7157 7.37258L50.3431 30L27.7157 52.6274C26.1536 54.1895 26.1536 56.7222 27.7157 58.2843C29.2778 59.8464 31.8105 59.8464 33.3726 58.2843L58.8284 32.8284ZM4 34H56V26H4V34Z" fill="#ffffff"/>
</svg>
