<svg width="100" height="137" viewBox="0 0 100 137" fill="none" xmlns="http://www.w3.org/2000/svg">
<path d="M30 22C30 2 70 2 70 22" stroke="black" stroke-width="13"/>
<path d="M5.80594 38H94.1941C96.6395 38 98.5126 40.1749 98.1498 42.5934L84.6498 132.593C84.3561 134.551 82.674 136 80.6941 136H19.3059C17.326 136 15.6439 134.551 15.3502 132.593L1.85019 42.5934C1.48743 40.175 3.36047 38 5.80594 38Z" fill="#A39494" stroke="black" stroke-width="2"/>
<path d="M16.159 47.4616L24.5784 47.4616C26.9332 47.4616 28.8899 49.2771 29.0658 51.6253L33.9367 116.625C34.1323 119.236 32.067 121.462 29.4493 121.462L27.4256 121.462C25.2369 121.462 23.3656 119.887 22.9918 117.73L11.7251 52.7301C11.2482 49.9786 13.3664 47.4616 16.159 47.4616Z" fill="#686060" stroke="black"/>
<path d="M83.841 47.4616L75.4216 47.4616C73.0668 47.4616 71.1101 49.2771 70.9342 51.6253L66.0633 116.625C65.8677 119.236 67.933 121.462 70.5507 121.462L72.5744 121.462C74.7631 121.462 76.6344 119.887 77.0082 117.73L88.2749 52.7301C88.7518 49.9786 86.6336 47.4616 83.841 47.4616Z" fill="#686060" stroke="black"/>
<rect x="42.5" y="52.5" width="14" height="67" rx="4.5" fill="#686060" stroke="black"/>
<rect x="5" y="23" width="90" height="8" rx="1" fill="#A39494" stroke="black" stroke-width="2"/>
<path d="M30 22C30 2 70 2 70 22" stroke="#686060" stroke-width="10"/>
</svg>
