<svg width="100" height="137" viewBox="0 0 100 137" fill="none" xmlns="http://www.w3.org/2000/svg">
<path fill-rule="evenodd" clip-rule="evenodd" d="M39.8556 16.1583C37.6037 17.6596 36.5 19.5214 36.5 22L23.5 22C23.5 14.4786 27.3964 8.84041 32.6445 5.34167C37.6999 1.97137 44.0358 0.5 50 0.5C55.9642 0.5 62.3001 1.97137 67.3556 5.34167C72.6036 8.84041 76.5 14.4786 76.5 22H63.5C63.5 19.5214 62.3963 17.6596 60.1444 16.1583C57.6999 14.5286 54.0358 13.5 50 13.5C45.9642 13.5 42.3001 14.5286 39.8556 16.1583Z" fill="black"/>
<path d="M5.80594 38.5H94.1941C96.3338 38.5 97.9728 40.4031 97.6553 42.5192L84.1553 132.519C83.8983 134.233 82.4265 135.5 80.6941 135.5H19.3059C17.5735 135.5 16.1017 134.233 15.8447 132.519L2.34466 42.5192C2.02724 40.4031 3.66615 38.5 5.80594 38.5Z" fill="#A39494" stroke="black" stroke-width="3"/>
<path d="M16.159 48.4616L24.5784 48.4616C26.41 48.4616 27.9318 49.8736 28.0686 51.7001L32.9395 116.7C33.0916 118.73 31.4853 120.462 29.4493 120.462L27.4256 120.462C25.7233 120.462 24.2678 119.237 23.9771 117.559L12.7104 52.5594C12.3395 50.4193 13.987 48.4616 16.159 48.4616Z" fill="#686060" stroke="black" stroke-width="3"/>
<path d="M83.841 48.4616L75.4216 48.4616C73.59 48.4616 72.0682 49.8736 71.9314 51.7001L67.0605 116.7C66.9084 118.73 68.5147 120.462 70.5507 120.462L72.5744 120.462C74.2767 120.462 75.7322 119.237 76.0229 117.559L87.2896 52.5594C87.6605 50.4193 86.013 48.4616 83.841 48.4616Z" fill="#686060" stroke="black" stroke-width="3"/>
<rect x="43.5" y="53.5" width="12" height="65" rx="3.5" fill="#686060" stroke="black" stroke-width="3"/>
<mask id="path-6-inside-1_2_20" fill="white">
<rect x="4" y="22" width="92" height="10" rx="2"/>
</mask>
<rect x="4" y="22" width="92" height="10" rx="2" fill="#A39494" stroke="black" stroke-width="6" mask="url(#path-6-inside-1_2_20)"/>
<path d="M30 22C30 2 70 2 70 22" stroke="#686060" stroke-width="8"/>
</svg>
