<svg width="100" height="135" viewBox="0 0 100 135" fill="none" xmlns="http://www.w3.org/2000/svg">
<path d="M0.861256 40.7417C0.407803 37.7187 2.7491 35 5.80594 35H94.1941C97.2509 35 99.5922 37.7187 99.1387 40.7417L85.6387 130.742C85.2716 133.189 83.169 135 80.6941 135H19.3059C16.831 135 14.7284 133.189 14.3613 130.742L0.861256 40.7417Z" fill="#A39494"/>
<path d="M11.2324 50.8155C10.7025 47.7583 13.0561 44.9616 16.159 44.9616L24.5784 44.9616C27.1949 44.9616 29.3689 46.9788 29.5644 49.588L34.4353 114.588C34.6526 117.488 32.3579 119.962 29.4493 119.962L27.4256 119.962C24.9937 119.962 22.9144 118.212 22.4991 115.816L11.2324 50.8155Z" fill="#686060"/>
<path d="M88.7676 50.8155C89.2975 47.7583 86.9439 44.9616 83.841 44.9616L75.4216 44.9616C72.8051 44.9616 70.6311 46.9788 70.4356 49.588L65.5647 114.588C65.3474 117.488 67.6421 119.962 70.5507 119.962L72.5744 119.962C75.0063 119.962 77.0856 118.212 77.5009 115.816L88.7676 50.8155Z" fill="#686060"/>
<rect x="42" y="50" width="15" height="68" rx="5" fill="#686060"/>
<rect x="4" y="20" width="92" height="10" rx="2" fill="#A39494"/>
<path d="M30 20C30 -3.38351e-06 70 1.48632e-06 70 20" stroke="#686060" stroke-width="10"/>
</svg>
