<svg width="100" height="135" viewBox="0 0 100 135" fill="none" xmlns="http://www.w3.org/2000/svg">
<path d="M5.80594 39.5H94.1941C94.4997 39.5 94.7339 39.7719 94.6885 40.0742L81.1885 130.074C81.1518 130.319 80.9416 130.5 80.6941 130.5H19.3059C19.0584 130.5 18.8482 130.319 18.8115 130.074L5.31147 40.0742C5.26612 39.7719 5.50026 39.5 5.80594 39.5Z" stroke="#444444" stroke-width="9"/>
<path d="M24.6087 53.2413L30.9279 53.2413C32.5844 53.2413 33.9087 54.5062 34.0141 56.189L37.6924 114.951C37.8175 116.95 36.1935 118.712 34.2258 118.712L32.7366 118.712C31.1816 118.712 29.9041 117.594 29.6784 116.035L21.1701 57.2728C20.8688 55.1918 22.5324 53.2413 24.6087 53.2413Z" fill="#444444" stroke="#444444" stroke-width="0.7375"/>
<path d="M78.1908 57.3481C78.5256 55.0359 76.6771 52.8686 74.3702 52.8686L68.051 52.8686C66.2105 52.8686 64.7389 54.2741 64.6219 56.1438L60.9436 114.906C60.8045 117.127 62.6091 119.084 64.7953 119.084L66.2846 119.084C68.0123 119.084 69.4318 117.842 69.6825 116.11L78.1908 57.3481Z" fill="#444444"/>
<rect x="43.3292" y="57.1782" width="11.6646" height="60.1175" rx="3.6875" fill="#444444"/>
<rect x="4" y="20" width="92" height="10" rx="2" fill="#444444"/>
<path fill-rule="evenodd" clip-rule="evenodd" d="M38.7462 12.4942C36.0333 14.3028 34.5 16.7456 34.5 20L25.5 20C25.5 13.2544 28.9667 8.1972 33.7539 5.00577C38.4076 1.90325 44.3325 0.5 50 0.5C55.6675 0.5 61.5924 1.90326 66.2462 5.00577C71.0333 8.19721 74.5 13.2544 74.5 20H65.5C65.5 16.7456 63.9667 14.3028 61.2538 12.4942C58.4076 10.5967 54.3325 9.5 50 9.5C45.6675 9.5 41.5924 10.5967 38.7462 12.4942Z" fill="#444444"/>
</svg>
