<svg width="140" height="110" viewBox="0 0 140 110" fill="none" xmlns="http://www.w3.org/2000/svg">
<rect width="60.4091" height="98.2947" rx="10" transform="matrix(0.967675 0.252202 -0.265584 0.964088 81.5437 0)" fill="#444444"/>
<path d="M36.7909 100.29L65.1108 107.671C65.1108 107.671 48.9142 96.3395 51.0026 88.7583L73.1923 8.20833L62.8965 5.52496C57.5522 4.13209 52.0307 7.31931 50.5639 12.6438L29.77 88.1268C28.3033 93.4513 31.4466 98.8968 36.7909 100.29Z" fill="#444444"/>
<path d="M9.67674 99.3086L31.1767 104.912C31.1767 104.912 21.0168 98.2014 22.4526 92.9893L46.0781 7.22725L35.7823 4.54388C30.438 3.15101 24.9165 6.33824 23.4497 11.6627L2.65585 87.1457C1.18906 92.4702 4.33242 97.9157 9.67674 99.3086Z" fill="#444444"/>
</svg>
