<svg width="156" height="159" viewBox="0 0 156 159" fill="none" xmlns="http://www.w3.org/2000/svg">
<path d="M20.9995 8H44.9995V26.0469L20.9995 43V8Z" fill="white"/>
<path d="M12.8195 145.5V73.6652C12.8195 71.0547 14.0931 68.6084 16.2318 67.1114L73.2318 27.2114C75.9863 25.2832 79.6526 25.2832 82.4072 27.2114L139.407 67.1114C141.546 68.6084 142.819 71.0547 142.819 73.6652V145.5C142.819 149.918 139.238 153.5 134.819 153.5H130.319H117.819H100.819C96.4012 153.5 92.8195 149.918 92.8195 145.5V116.5C92.8195 112.082 89.2377 108.5 84.8195 108.5H70.8195C66.4012 108.5 62.8195 112.082 62.8195 116.5V145.5C62.8195 149.918 59.2377 153.5 54.8195 153.5H20.8195C16.4012 153.5 12.8195 149.918 12.8195 145.5Z" fill="white"/>
<path d="M77.8195 0L85.2759 10.649L11.5523 62.2709C9.29023 63.8548 6.1725 63.305 4.58861 61.043L2.86788 58.5855C1.28399 56.3235 1.83373 53.2058 4.09576 51.6219L77.8195 0Z" fill="white"/>
<path d="M77.8195 0L70.363 10.649L144.087 62.2709C146.349 63.8547 149.466 63.305 151.05 61.043L152.771 58.5855C154.355 56.3235 153.805 53.2058 151.543 51.6219L77.8195 0Z" fill="white"/>
</svg>
