<svg width="100" height="106" viewBox="0 0 100 106" fill="none" xmlns="http://www.w3.org/2000/svg">
<circle cx="50" cy="50" r="44" stroke="white" stroke-width="12"/>
<path d="M54.5818 48.9909C54.5818 50.5182 54.5818 52.2364 54.5818 54.1455C54.6364 56.0545 54.6636 58.0455 54.6636 60.1182C54.6636 62.1364 54.6636 64.1545 54.6636 66.1727C54.6636 68.1364 54.6364 69.9636 54.5818 71.6545C54.5273 72.4727 54.4455 73.3727 54.3364 74.3545C54.2273 75.2818 54.0091 76.1545 53.6818 76.9727C53.3545 77.7909 52.8364 78.4727 52.1273 79.0182C51.4727 79.5091 50.5727 79.7273 49.4273 79.6727C47.7364 79.5636 46.5091 78.8273 45.7455 77.4636C45.0364 76.1 44.6273 74.1909 44.5182 71.7364C44.5182 70.4818 44.4909 69.0364 44.4364 67.4C44.4364 65.7636 44.4091 64.1 44.3545 62.4091C44.3545 60.7182 44.3545 59.0818 44.3545 57.5C44.3545 55.8636 44.3545 54.3909 44.3545 53.0818C44.3545 52.3182 44.3273 51.3909 44.2727 50.3C44.2727 49.2091 44.3 48.0909 44.3545 46.9455C44.4091 45.8 44.5455 44.7091 44.7636 43.6727C44.9818 42.5818 45.3364 41.6818 45.8273 40.9727C46.2091 40.5364 46.7545 40.2091 47.4636 39.9909C48.1727 39.7182 48.9091 39.5818 49.6727 39.5818C50.4909 39.5818 51.2545 39.7182 51.9636 39.9909C52.7273 40.2636 53.2727 40.6455 53.6 41.1364C53.8182 41.4636 53.9818 41.9273 54.0909 42.5273C54.2 43.1273 54.2818 43.8091 54.3364 44.5727C54.4455 45.2818 54.5 46.0455 54.5 46.8636C54.5545 47.6273 54.5818 48.3364 54.5818 48.9909ZM51.4727 32.4636C49.7818 32.9 48.3636 32.7364 47.2182 31.9727C46.1273 31.1545 45.4455 29.9545 45.1727 28.3727C44.9545 27.2273 45.0364 26.2182 45.4182 25.3454C45.8 24.4727 46.3727 23.8182 47.1364 23.3818C47.9 22.8909 48.7727 22.6727 49.7545 22.7273C50.7364 22.7818 51.7182 23.1636 52.7 23.8727C53.6273 24.5273 54.2818 25.2909 54.6636 26.1636C55.1 27.0364 55.2364 27.8818 55.0727 28.7C54.9636 29.5182 54.6091 30.2818 54.0091 30.9909C53.4091 31.6455 52.5636 32.1364 51.4727 32.4636Z" fill="white"/>
</svg>

