<svg width="320" height="319" viewBox="0 0 320 319" fill="none" xmlns="http://www.w3.org/2000/svg">
<rect x="68.4297" y="194.502" width="80" height="11" transform="rotate(45 68.4297 194.502)" fill="#E7C5A9"/>
<path d="M230.357 32.5743C234.262 28.6691 240.594 28.6691 244.499 32.5743L286.926 75.0007C290.831 78.906 290.831 85.2376 286.926 89.1429L124.291 251.777L67.7226 195.209L230.357 32.5743Z" fill="#F16C9F"/>
<path d="M60.6515 202.28L117.22 258.848H65.6515C62.8901 258.848 60.6515 256.61 60.6515 253.848V202.28Z" fill="#E7C5A9"/>
<path d="M60.6515 239.463L70.3444 249.156L80.0373 258.849H63.6515C61.9946 258.849 60.6515 257.505 60.6515 255.849V239.463Z" fill="black"/>
<path d="M209.144 53.7875L230.357 75.0007L88.9358 216.422L60.6515 202.28L209.144 53.7875Z" fill="#F3A744"/>
<path d="M265.712 110.356L255.773 100.416L244.499 89.1429L103.078 230.564L117.22 258.848L265.712 110.356Z" fill="#F3A744"/>
<rect x="216.215" y="46.7165" width="80" height="12" transform="rotate(45 216.215 46.7165)" fill="#DAC8C8"/>
<rect x="213.387" y="49.5449" width="80" height="4" transform="rotate(45 213.387 49.5449)" fill="#BFAFAF"/>
<path d="M221.872 69.3439L250.156 97.6282L107.824 239.961H79.5394V211.676L221.872 69.3439Z" fill="#F6D753"/>
</svg>
