<svg width="80" height="80" viewBox="0 0 80 80" fill="none" xmlns="http://www.w3.org/2000/svg">
<path fill-rule="evenodd" clip-rule="evenodd" d="M58.0108 11.5097C58.0006 5.61579 53.8101 0.954359 48.8608 0.12863C46.3152 -0.296066 43.6192 0.313478 41.3622 2.21714C39.14 4.0914 37.5344 7.05117 36.7138 11.0214C35.7796 15.5414 33.9414 19.787 31.8624 23.1567C29.7355 26.6041 27.5381 28.8447 26.0576 29.6703C25.2099 30.143 24.2588 30.3465 23.308 30.3465H8.94056C7.43017 30.3465 6.06586 30.4052 4.91435 30.648C3.72331 30.899 2.52906 31.3939 1.61406 32.44C0.727122 33.454 0.370983 34.6841 0.198904 35.8296C0.0279489 36.9675 -9.5365e-07 38.3182 0 39.7994V70.0511C0 71.5216 0.0665851 73.1633 0.728276 74.566C1.50422 76.2108 2.87802 77.1419 4.55353 77.6579C6.09953 78.1341 8.1046 78.3239 10.5564 78.4174C13.0424 78.5122 16.2392 78.5122 20.2809 78.5122H20.3354C21.4572 78.5122 22.5114 78.46 23.4124 78.0681C24.0569 77.7878 24.5806 77.3086 24.8581 77.0224C25.3637 77.2716 26.0591 77.6463 27.0509 78.1979C27.6205 78.5146 28.2935 78.7077 28.8508 78.8393C29.4573 78.9825 30.1511 79.1025 30.8793 79.205C32.3385 79.4105 34.0777 79.5654 35.8142 79.6814C39.2906 79.9136 42.9168 80 44.6114 80H60.8279C62.1413 80 63.4109 79.9609 64.5149 79.795C65.5692 79.6365 66.8194 79.3173 67.8175 78.4985C68.9831 77.5421 69.469 76.1959 69.4093 74.7727C69.3401 73.1241 67.8093 70.4796 67.8835 70.2056C67.9577 69.9315 70.5949 69.498 71.9345 68.4841C72.6725 67.9255 73.4807 67.09 73.8959 65.9097C74.3383 64.6523 74.226 63.3121 73.6246 62.0352C73.0547 60.8252 72.62 59.9023 72.3029 59.1772C73.7565 59.1586 75.1632 58.9128 76.2696 57.8585C78.7856 55.4609 77.949 51.3501 76.5718 48.5929C76.3945 48.2379 76.2403 47.9287 76.1066 47.6571C77.1378 47.4175 78.0763 46.9034 78.7881 46.074C79.5697 45.1631 79.9101 44.0683 79.9838 43.0291C80.126 41.0261 79.3233 38.8922 78.1222 37.0743C75.6705 33.3634 70.8274 29.8505 64.4285 29.8505H55.5108C54.8259 29.8505 54.3286 29.825 53.9712 29.7849C54.1106 29.2383 54.3845 28.4703 54.8409 27.3867C55.8462 24.9997 56.6984 22.8947 57.259 20.4321C57.8225 17.957 58.0709 15.2222 58.0108 11.5097ZM44.5784 6.06059C43.4564 7.00693 42.2752 8.8205 41.6095 12.0413C40.5438 17.1977 38.4651 21.9877 36.1131 25.8C33.809 29.5346 31.0612 32.6224 28.4852 34.0587C27.6078 34.5479 26.7032 34.8791 25.808 35.0857V71.9747C26.1862 72.105 26.5481 72.2686 26.8792 72.4276C27.5443 72.747 28.3925 73.2055 29.4736 73.8068C29.4659 73.8025 29.4621 73.7999 29.4621 73.7999C29.463 73.7979 29.6086 73.8615 29.9955 73.9528C30.3988 74.0481 30.9289 74.143 31.5738 74.2338C32.8607 74.415 34.464 74.5603 36.1461 74.6726C39.5071 74.8971 43.0225 74.9802 44.6114 74.9802H60.8279C62.0925 74.9802 63.0551 74.9387 63.7746 74.8305C64.9226 74.6579 63.6944 73.2004 62.9609 71.5493C62.7195 71.0059 62.3946 70.1501 62.4394 69.1802C62.4935 68.0092 63.0663 66.9777 64.0596 66.2827C64.906 65.6907 65.9493 65.4154 66.9744 65.2684C67.1433 65.2442 67.4922 65.1653 67.9004 65.0116C68.3088 64.8577 68.6692 64.669 68.9245 64.4758C69.1681 64.2914 69.1433 64.2635 69.0259 64.0143C68.3191 62.514 67.7351 61.2741 67.3555 60.3123C67.1569 59.8092 66.9771 59.2914 66.8666 58.7887C66.7609 58.3082 66.6706 57.6367 66.8382 56.9151C67.0315 56.0831 67.5174 55.3977 68.199 54.9384C68.7874 54.5418 69.4133 54.3868 69.8541 54.3096C70.6949 54.1625 72.6764 54.2473 72.8241 54.1513C73.7059 53.578 71.2311 49.115 70.9265 48.373C70.7856 48.0298 70.6439 47.6397 70.5547 47.234C70.4672 46.836 70.3946 46.2689 70.5345 45.6385C70.8853 44.0585 72.1727 43.4526 72.8378 43.2263C75.1224 42.4487 76.0748 43.0568 73.9555 39.849C72.3001 37.3433 68.9291 34.8703 64.4285 34.8703H55.5108C54.3485 34.8703 53.2022 34.8138 52.2256 34.5616C51.2173 34.3012 49.9994 33.7254 49.3214 32.3963C48.7015 31.1812 48.8286 29.8824 49.0411 28.9047C49.2647 27.8763 49.699 26.7059 50.2356 25.4318C51.2382 23.0512 51.9314 21.3045 52.3847 19.3136C53.0882 16.2233 53.5 13.0515 53 10.0396C52.3659 6.21975 50.5172 5.49361 48.0411 5.08052C46.871 4.8853 45.6656 5.14364 44.5784 6.06059ZM20.808 73.4866C20.673 73.4903 20.5166 73.4924 20.3354 73.4924C16.2284 73.4924 13.126 73.492 10.7462 73.4012C8.3212 73.3088 6.88924 73.1266 6.02003 72.8589C5.32919 72.6461 5.26647 72.4709 5.25008 72.4251C5.24892 72.4218 5.248 72.4193 5.2471 72.4173C5.1192 72.1462 5 71.5563 5 70.0511V39.7994C5 38.3049 5.03455 37.3 5.14298 36.5782C5.23446 35.9693 5.34979 35.7823 5.36984 35.7541C5.41058 35.7246 5.55737 35.6417 5.94175 35.5607C6.55477 35.4314 7.48067 35.3662 8.94056 35.3662H20.808V73.4866ZM5.35701 35.7653C5.35701 35.7653 5.3599 35.7614 5.36889 35.7548C5.36204 35.7623 5.35701 35.7653 5.35701 35.7653Z" fill="black"/>
</svg>
